<svg width="147" height="40" viewBox="0 0 147 40" fill="none" xmlns="http://www.w3.org/2000/svg">
<path fill-rule="evenodd" clip-rule="evenodd" d="M1.88823 35.6808C3.27866 38.0912 5.77011 39.5303 8.55284 39.5303H8.55288C11.7086 39.5303 14.6505 37.8333 16.2305 35.1016L19.9271 28.7104H1.5208C0.512631 30.9567 0.635038 33.5082 1.88823 35.6808Z" fill="#C2D1D9"/>
<path fill-rule="evenodd" clip-rule="evenodd" d="M32.7695 35.0956C34.3488 37.831 37.292 39.5303 40.4506 39.5303H40.4524C43.2354 39.5303 45.7276 38.0914 47.1191 35.6813C48.3731 33.5094 48.4969 30.9575 47.4907 28.7104H29.083L32.7695 35.0956Z" fill="#C2D1D9"/>
<path fill-rule="evenodd" clip-rule="evenodd" d="M45.8593 25.8019L39.2493 14.3564H9.76321L3.1532 25.8019H45.8593Z" fill="#C2D1D9"/>
<path fill-rule="evenodd" clip-rule="evenodd" d="M24.8646 0.162354H24.1621C20.3395 0.162354 16.7773 2.21867 14.8655 5.52877L11.4441 11.4477H37.5722L34.1605 5.5276C32.2494 2.21867 28.6872 0.162354 24.8646 0.162354Z" fill="#C2D1D9"/>
<path fill-rule="evenodd" clip-rule="evenodd" d="M60.1788 24.2579C60.1788 21.9705 61.1913 20.2831 63.1037 19.5331C63.9662 19.1956 65.4661 19.0082 67.6035 19.0082H68.7284C69.6659 19.0082 70.4909 19.0456 71.2408 19.1207V16.9832C71.2408 14.2459 69.8534 13.3084 66.7035 13.3084C65.3911 13.3084 64.1162 13.4959 62.8412 13.8709C62.2787 14.0209 61.9788 14.0209 61.8663 13.5709L61.6788 12.7834C61.5288 12.3334 61.6413 12.0709 62.0912 11.9585C63.7037 11.471 65.3161 11.2085 66.891 11.2085C71.6908 11.2085 73.6782 12.8209 73.6782 16.7208V29.5452C73.6782 29.8452 73.6033 29.9202 73.2658 29.9202H72.0283C71.6908 29.9202 71.5408 29.8077 71.5408 29.5452L71.4658 28.2703H71.3908C70.5659 29.5827 69.2534 30.2577 67.416 30.2577H65.5411C63.8912 30.2577 62.3912 29.7702 61.5288 28.9077C60.6288 28.0078 60.1788 26.8454 60.1788 25.3829V24.2579ZM62.6537 25.0828C62.6537 26.2453 62.9162 27.0327 63.4412 27.5202C63.9287 27.9702 64.6787 28.1952 65.7286 28.1952H67.2661C69.7784 28.1952 71.2408 26.8453 71.2408 24.2954V21.183C70.6409 21.108 69.8909 21.0705 68.9909 21.0705H66.891C65.3161 21.0705 64.2287 21.333 63.5912 21.8205C62.9537 22.308 62.6537 23.1329 62.6537 24.2954V25.0828Z" fill="#C2D1D9"/>
<path fill-rule="evenodd" clip-rule="evenodd" d="M78.7775 4.94645C78.7775 4.68397 78.9274 4.53394 79.2274 4.53394H80.7649C81.0648 4.53394 81.2148 4.68397 81.2148 4.94645V25.0081C81.2148 26.358 81.2523 26.808 81.5523 27.3705C81.7398 27.633 82.1898 27.783 82.9023 27.783H83.9147C84.1397 27.783 84.3647 27.8204 84.3647 28.1954V29.4704C84.3647 29.7704 84.2522 29.9204 83.9897 29.9204H82.5648C81.2148 29.9204 80.2399 29.6204 79.6774 29.0579C79.0774 28.4204 78.7775 27.258 78.7775 25.6081V4.94645Z" fill="#C2D1D9"/>
<path fill-rule="evenodd" clip-rule="evenodd" d="M88.0394 6.59644C88.0394 5.39649 88.7144 4.83398 89.7644 4.83398H89.9144C91.0018 4.83398 91.5643 5.43396 91.5643 6.59644V6.82141C91.5643 8.02136 90.9269 8.62134 89.9144 8.62134H89.7644C88.527 8.62134 88.0394 8.05887 88.0394 6.82141V6.59644ZM88.602 11.9587C88.602 11.6961 88.7519 11.5462 89.0519 11.5462H90.5894C90.8894 11.5462 91.0394 11.6961 91.0394 11.9587V29.6204C91.0394 29.8079 90.9269 29.9204 90.7019 29.9204H88.9019C88.7144 29.9204 88.602 29.8079 88.602 29.6204V11.9587Z" fill="#C2D1D9"/>
<path fill-rule="evenodd" clip-rule="evenodd" d="M95.8011 20.0581C95.8011 13.4209 98.0135 11.2085 103.001 11.2085C105.401 11.2085 107.088 11.9585 108.101 13.4584H108.176L108.363 11.9959C108.401 11.6959 108.588 11.546 108.926 11.546H109.825C110.238 11.546 110.351 11.621 110.351 12.0334V36.1449C110.351 36.4074 110.238 36.5574 109.976 36.5574H108.288C108.026 36.5574 107.913 36.4074 107.913 36.1449V28.2703H107.838C106.788 29.5827 105.138 30.2577 102.888 30.2577C97.7885 30.2577 95.8011 27.8202 95.8011 21.8205V20.0581ZM98.2761 21.6332C98.2761 24.1831 98.6885 25.9455 99.5135 26.8829C100.301 27.7829 101.351 28.1579 103.188 28.1579C106.188 28.1579 107.913 26.6205 107.913 23.6581V18.1083C107.913 15.0709 106.188 13.3085 103.038 13.3085C101.388 13.3085 100.413 13.646 99.6635 14.4335C98.726 15.4459 98.2761 17.4333 98.2761 20.3957V21.6332Z" fill="#C2D1D9"/>
<path fill-rule="evenodd" clip-rule="evenodd" d="M115.225 12.1464C115.225 11.8089 115.45 11.5464 115.75 11.5464H117.137C117.475 11.5464 117.662 11.7338 117.662 12.0713V24.3334C117.662 25.8333 117.925 26.6582 118.637 27.2582C119.275 27.8582 120.4 28.1582 122.012 28.1582C123.55 28.1582 124.712 27.8206 125.462 27.1082C126.099 26.5082 126.324 25.8333 126.324 24.3334V12.0338C126.324 11.7338 126.512 11.5464 126.774 11.5464H128.349C128.612 11.5464 128.762 11.6963 128.762 12.0338V24.6333C128.762 26.5457 128.199 27.9707 127.112 28.9081C126.025 29.8456 124.562 30.2581 122.012 30.2581C119.687 30.2581 118 29.8081 116.912 28.9081C115.787 27.9707 115.225 26.5457 115.225 24.6333V12.1464Z" fill="#C2D1D9"/>
<path fill-rule="evenodd" clip-rule="evenodd" d="M132.661 24.2579C132.661 21.9705 133.674 20.2831 135.586 19.5331C136.449 19.1956 137.949 19.0082 140.086 19.0082H141.211C142.149 19.0082 142.974 19.0456 143.723 19.1207V16.9832C143.723 14.2459 142.336 13.3084 139.186 13.3084C137.874 13.3084 136.599 13.4959 135.324 13.8709C134.761 14.0209 134.461 14.0209 134.349 13.5709L134.161 12.7834C134.011 12.3334 134.124 12.0709 134.574 11.9585C136.186 11.471 137.799 11.2085 139.374 11.2085C144.174 11.2085 146.161 12.8209 146.161 16.7208V29.5452C146.161 29.8452 146.086 29.9202 145.748 29.9202H144.511C144.174 29.9202 144.023 29.8077 144.023 29.5452L143.948 28.2703H143.873C143.049 29.5827 141.736 30.2577 139.899 30.2577H138.024C136.374 30.2577 134.874 29.7702 134.011 28.9077C133.111 28.0078 132.661 26.8454 132.661 25.3829V24.2579ZM135.136 25.0828C135.136 26.2453 135.399 27.0327 135.924 27.5202C136.411 27.9702 137.161 28.1952 138.211 28.1952H139.749C142.261 28.1952 143.723 26.8453 143.723 24.2954V21.183C143.124 21.108 142.374 21.0705 141.474 21.0705H139.374C137.799 21.0705 136.711 21.333 136.074 21.8205C135.436 22.308 135.136 23.1329 135.136 24.2954V25.0828Z" fill="#C2D1D9"/>
</svg>
