<svg width="147" height="39" viewBox="0 0 147 39" fill="none" xmlns="http://www.w3.org/2000/svg">
<path fill-rule="evenodd" clip-rule="evenodd" d="M37.9611 28.1448C34.7597 34.2001 28.3946 38.3355 21.082 38.3355H2.49512V28.1448H37.9611Z" fill="#C2D1D9"/>
<path fill-rule="evenodd" clip-rule="evenodd" d="M37.9607 10.3676H0.853394V0.177002H21.082C28.3946 0.177002 34.7592 4.3124 37.9607 10.3676Z" fill="#C2D1D9"/>
<path fill-rule="evenodd" clip-rule="evenodd" d="M39.928 19.2565C39.928 20.8429 39.7203 22.4307 39.309 23.9943H5.1897V14.5188H39.309C39.7203 16.0819 39.928 17.6697 39.928 19.2565Z" fill="#C2D1D9"/>
<path fill-rule="evenodd" clip-rule="evenodd" d="M64.7079 9.19141V25.8646H61.9887L61.7979 24.2426C60.8915 25.6499 59.4364 26.127 58.0053 26.127C54.5466 26.127 51.9467 23.8371 51.9467 19.9729C51.9467 15.9179 54.4989 13.8189 57.9337 13.8189C59.1741 13.8189 61.1061 14.4868 61.7979 15.7032V9.19141H64.7079ZM54.8567 19.973C54.8567 22.0243 56.3356 23.4317 58.1961 23.4317C60.0328 23.4317 61.6071 22.0959 61.6071 19.973C61.6071 17.9216 60.0328 16.5382 58.1961 16.5382C56.3356 16.5382 54.8567 17.8501 54.8567 19.973Z" fill="#C2D1D9"/>
<path fill-rule="evenodd" clip-rule="evenodd" d="M79.0911 14.105L71.9114 30.7781H68.7151L70.9096 25.6737L66.2106 14.105H69.5977L71.3867 19.1857L72.5077 22.5012L73.7242 19.2572L75.871 14.105H79.0911Z" fill="#C2D1D9"/>
<path fill-rule="evenodd" clip-rule="evenodd" d="M89.2761 25.8646V19.7106C89.2761 17.9216 88.2981 16.562 86.4377 16.562C84.6487 16.562 83.4322 18.0648 83.4322 19.8537V25.8646H80.546V14.0813H83.146L83.3367 15.6794C84.5294 14.5106 85.722 13.9143 87.2009 13.9143C89.9679 13.9143 92.1862 15.9895 92.1862 19.6867V25.8646H89.2761Z" fill="#C2D1D9"/>
<path fill-rule="evenodd" clip-rule="evenodd" d="M104.017 14.1051H106.808V25.8645H104.065L103.922 24.1471C103.254 25.5306 101.417 26.1985 100.105 26.2224C96.6228 26.2462 94.0467 24.0994 94.0467 19.9729C94.0467 15.9179 96.742 13.795 100.177 13.8188C101.751 13.8188 103.254 14.5582 103.922 15.727L104.017 14.1051ZM96.9567 19.9728C96.9567 22.215 98.5072 23.5508 100.439 23.5508C105.019 23.5508 105.019 16.4188 100.439 16.4188C98.5072 16.4188 96.9567 17.7307 96.9567 19.9728Z" fill="#C2D1D9"/>
<path fill-rule="evenodd" clip-rule="evenodd" d="M117.316 25.8648V19.5676C117.316 18.0172 116.505 16.6099 114.907 16.6099C113.333 16.6099 112.403 18.0172 112.403 19.5676V25.8648H109.493V14.0814H112.188L112.403 15.5126C113.023 14.32 114.383 13.8906 115.504 13.8906C116.911 13.8906 118.318 14.4631 118.986 16.0851C120.036 14.4154 121.395 13.9383 122.922 13.9383C126.261 13.9383 127.907 15.9897 127.907 19.5199V25.8648H124.997V19.5199C124.997 17.9695 124.353 16.6576 122.779 16.6576C121.204 16.6576 120.227 18.0172 120.227 19.5676V25.8648H117.316Z" fill="#C2D1D9"/>
<path fill-rule="evenodd" clip-rule="evenodd" d="M133.809 10.7896C133.809 13.0556 130.374 13.0556 130.374 10.7896C130.374 8.52358 133.809 8.52358 133.809 10.7896ZM130.637 25.8648H133.547V14.0576H130.637V25.8648Z" fill="#C2D1D9"/>
<path fill-rule="evenodd" clip-rule="evenodd" d="M146.26 24.3619C144.901 25.6977 143.47 26.2225 141.728 26.2225C138.317 26.2225 135.479 24.1711 135.479 19.9969C135.479 15.8226 138.317 13.7712 141.728 13.7712C143.398 13.7712 144.686 14.2483 145.974 15.5125L144.137 17.4446C143.446 16.8244 142.587 16.5143 141.776 16.5143C139.82 16.5143 138.389 17.9455 138.389 19.9969C138.389 22.239 139.915 23.4317 141.728 23.4317C142.659 23.4317 143.589 23.1693 144.304 22.4537L146.26 24.3619Z" fill="#C2D1D9"/>
</svg>
