<svg width="127" height="63" viewBox="0 0 127 63" fill="none" xmlns="http://www.w3.org/2000/svg">
<path fill-rule="evenodd" clip-rule="evenodd" d="M21.0407 13.5645L18.6029 21.9245H31.1419L0.257812 62.562L8.38547 34.1156H0.721965L8.15302 0.444336H47.3972L37.5284 13.5645H21.0407Z" fill="#C2D1D9"/>
<path fill-rule="evenodd" clip-rule="evenodd" d="M54.0949 19.4192C55.5232 19.4192 56.5516 19.6477 57.4086 20.0476L56.923 23.1614C56.4373 22.9328 55.7517 22.7615 54.8948 22.7615C53.4379 22.7615 52.1809 23.2756 51.9239 24.9325L51.7239 26.1037H55.8946L55.3804 29.446H51.1811L49.5528 39.8156H45.5821L47.239 29.446H44.868L45.4107 26.1037H47.7532L48.0103 24.5326C48.6387 20.5047 51.5239 19.4192 54.0949 19.4192Z" fill="#C2D1D9"/>
<path fill-rule="evenodd" clip-rule="evenodd" d="M71.3775 26.1035L69.2064 39.8154H65.7213L66.007 38.0442C64.8358 39.3868 63.1789 40.2153 61.265 40.2153C57.7228 40.2153 55.9231 37.6444 56.4373 34.4449L57.7513 26.1035H61.6935L60.4366 34.1878C60.1223 36.0446 61.0365 36.7873 62.4648 36.7873C64.0073 36.7873 65.2929 35.8732 66.0356 34.9591L67.4353 26.1035H71.3775Z" fill="#C2D1D9"/>
<path fill-rule="evenodd" clip-rule="evenodd" d="M78.3477 46.4999C75.9482 46.4999 73.92 45.9286 72.4631 45.1002L73.0058 41.7579C74.3771 42.7006 76.0625 43.1577 77.9765 43.1577C80.4331 43.1577 82.6042 42.1579 83.0327 39.5012L83.2326 38.2443C82.4899 39.1584 81.0044 40.2153 78.5763 40.2153C74.2342 40.2153 72.2632 36.5874 72.8916 32.7024C73.4629 29.103 76.3195 25.7036 80.5188 25.7036C82.8327 25.7036 84.3467 26.7035 85.2037 28.2746L85.575 26.1036H89.1172L87.0034 39.5583C86.2035 44.586 82.3756 46.4999 78.3477 46.4999ZM79.6904 36.873C81.5472 36.873 83.0327 35.7589 83.8039 34.5305L84.3467 31.1883C84.0039 30.0171 82.8898 29.0458 81.2901 29.0458C78.9191 29.0458 77.2052 30.7312 76.8338 33.0737C76.5195 35.0733 77.5194 36.873 79.6904 36.873Z" fill="#C2D1D9"/>
<path fill-rule="evenodd" clip-rule="evenodd" d="M90.3457 39.8156L92.5168 26.1037H96.4875L94.3165 39.8156H90.3457ZM95.0306 23.847C93.7165 23.847 92.6596 23.0186 92.9167 21.3331C93.1453 19.9048 94.2307 19.3049 95.4019 19.3049C96.7446 19.3049 97.773 20.1619 97.5158 21.8188C97.2873 23.2471 96.2018 23.847 95.0306 23.847Z" fill="#C2D1D9"/>
<path fill-rule="evenodd" clip-rule="evenodd" d="M103.772 40.2153C99.4295 40.2153 97.4584 36.5874 98.0869 32.7024C98.6582 29.103 101.458 25.7036 105.714 25.7036C108.228 25.7036 109.713 27.0463 110.428 28.3889L110.799 26.1036H114.284L112.113 39.8154H108.628L108.942 37.7872C107.885 39.1298 106.2 40.2153 103.772 40.2153ZM104.886 36.873C106.742 36.873 108.228 35.7017 108.999 34.4734L109.542 31.274C109.228 30.0457 108.114 29.0458 106.485 29.0458C104.114 29.0458 102.4 30.7884 102.029 33.0451C101.715 35.0733 102.715 36.873 104.886 36.873Z" fill="#C2D1D9"/>
<path fill-rule="evenodd" clip-rule="evenodd" d="M123.282 21.1614L122.511 26.1034H126.853L126.311 29.4456H121.968L121.083 34.9304C120.854 36.3873 121.426 36.8729 122.883 36.8729C123.854 36.8729 124.711 36.7015 125.539 36.3587L125.025 39.6153C124.168 39.9867 122.825 40.2151 121.454 40.2151C118.855 40.2151 116.541 38.8725 117.084 35.4731L118.026 29.4456H115.712L116.255 26.1034H118.54L119.197 22.1327L123.282 21.1614Z" fill="#C2D1D9"/>
</svg>
