<svg width="155" height="60" viewBox="0 0 155 60" fill="none" xmlns="http://www.w3.org/2000/svg">
<path fill-rule="evenodd" clip-rule="evenodd" d="M3.29294 47.1767L23.4068 58.7895C25.3502 59.9115 27.7445 59.9115 29.6878 58.7895L49.8017 47.1767C51.7451 46.0547 52.9422 43.9812 52.9422 41.7372V18.5117C52.9422 16.2677 51.7451 14.1942 49.8017 13.0722L29.6878 1.45943C27.7445 0.337416 25.3502 0.337416 23.4068 1.45943L3.29294 13.0722C1.34957 14.1942 0.152466 16.2677 0.152466 18.5117V41.7372C0.152466 43.9812 1.34957 46.0547 3.29294 47.1767ZM31.1864 35.258C26.8494 39.1773 27.4323 42.1635 30.2896 45.3252H30.2818C31.0929 46.2203 31.5913 47.404 31.5913 48.707C31.5913 51.4927 29.333 53.751 26.5473 53.751C23.7617 53.751 21.5034 51.4927 21.5034 48.707C21.5034 47.404 22.0018 46.2203 22.8128 45.3252H22.8051C25.6624 42.1635 26.2453 39.1773 21.9083 35.258H21.92C20.5161 33.9917 19.6284 32.1641 19.6284 30.1246C19.6284 28.0851 20.5161 26.2576 21.92 24.9913H21.9083C26.2453 21.0719 25.6624 18.0858 22.8051 14.9241H22.8128C22.0018 14.029 21.5034 12.8452 21.5034 11.5422C21.5034 8.75651 23.7617 6.49827 26.5473 6.49827C29.333 6.49827 31.5913 8.75651 31.5913 11.5422C31.5913 12.8452 31.0929 14.029 30.2818 14.9241H30.2896C27.4323 18.0858 26.8494 21.0719 31.1864 24.9913H31.1747C32.5786 26.2576 33.4663 28.0851 33.4663 30.1246C33.4663 32.1641 32.5786 33.9917 31.1747 35.258H31.1864ZM16.4516 35.1583C14.9407 33.4864 14.0765 31.8624 14.2287 30.1247C14.0765 28.387 14.9407 26.763 16.4516 25.0911H16.4439C17.2549 24.1959 17.7533 23.0123 17.7533 21.7092C17.7533 18.9235 15.4951 16.6653 12.7094 16.6653C9.92369 16.6653 7.6655 18.9235 7.6655 21.7092C7.6655 23.0123 8.16391 24.1959 8.97491 25.0911H8.96718C10.4781 26.763 11.3424 28.387 11.1901 30.1247C11.3424 31.8624 10.4781 33.4864 8.96718 35.1583H8.97491C8.16391 36.0533 7.6655 37.237 7.6655 38.5401C7.6655 41.3258 9.92369 43.5841 12.7094 43.5841C15.4951 43.5841 17.7533 41.3258 17.7533 38.5401C17.7533 37.237 17.2549 36.0533 16.4439 35.1583H16.4516ZM41.9046 30.1247C41.7523 31.8624 42.6166 33.4864 44.1275 35.1583H44.1197C44.9308 36.0533 45.4292 37.237 45.4292 38.5401C45.4292 41.3258 43.1709 43.5841 40.3853 43.5841C37.5996 43.5841 35.3414 41.3258 35.3414 38.5401C35.3414 37.237 35.8398 36.0533 36.6508 35.1583H36.6431C38.154 33.4864 39.0182 31.8624 38.866 30.1247C39.0182 28.387 38.154 26.763 36.6431 25.0911H36.6508C35.8398 24.1959 35.3414 23.0123 35.3414 21.7092C35.3414 18.9235 37.5996 16.6653 40.3853 16.6653C43.1709 16.6653 45.4292 18.9235 45.4292 21.7092C45.4292 23.0123 44.9308 24.1959 44.1197 25.0911H44.1275C42.6166 26.763 41.7523 28.387 41.9046 30.1247Z" fill="#C2D1D9"/>
<path fill-rule="evenodd" clip-rule="evenodd" d="M69.8395 19.1758V34.1748C69.8395 35.1656 70.2248 35.7435 71.0229 35.7435C71.5733 35.7435 72.0687 35.5509 72.5641 35.3032L72.7567 38.3581C72.0962 38.6333 70.8578 38.991 69.5092 38.991C67.3626 38.991 65.9865 37.9453 65.9865 35.1106V19.1758H69.8395" fill="#C2D1D9"/>
<path fill-rule="evenodd" clip-rule="evenodd" d="M88.9113 34.2851C88.9113 35.1107 89.1315 35.7437 89.9021 35.7437C90.4525 35.7437 90.8929 35.551 91.3607 35.3034L91.5258 38.3582C90.8103 38.6885 89.6269 38.9912 88.3884 38.9912C86.7647 38.9912 85.7464 38.3307 85.3336 36.8996C84.3428 38.0555 82.7466 38.9636 80.7651 38.9636C76.747 38.9636 74.0223 35.8813 74.0223 31.5605C74.0223 27.1846 76.747 24.0747 80.7651 24.0747C82.6365 24.0747 84.0951 24.5976 85.0584 25.5608V24.3224H88.9113V34.2851ZM85.0584 28.7259C84.3978 28.0379 83.1319 27.4324 81.8384 27.4324C79.444 27.4324 77.9303 29.0837 77.9303 31.5607C77.9303 33.9825 79.4715 35.6337 81.8384 35.6337C83.1044 35.6337 84.2877 35.0558 85.0584 34.3403V28.7259Z" fill="#C2D1D9"/>
<path fill-rule="evenodd" clip-rule="evenodd" d="M102.039 38.991C100.085 38.991 98.6814 38.3856 97.7181 37.4224V38.7158H93.8651V19.1758H97.7181V25.5332C98.7089 24.6525 100.195 24.0746 102.039 24.0746C106.085 24.0746 108.809 27.1569 108.809 31.5053C108.809 35.8537 106.085 38.991 102.039 38.991ZM100.966 27.4321C99.6721 27.4321 98.4611 28.0376 97.7181 28.7807V34.3125C98.3786 34.973 99.6171 35.6335 100.966 35.6335C103.332 35.6335 104.874 33.9822 104.874 31.5053C104.874 29.0559 103.332 27.4321 100.966 27.4321Z" fill="#C2D1D9"/>
<path fill-rule="evenodd" clip-rule="evenodd" d="M118.414 23.937C122.927 23.937 126.175 27.1845 126.175 31.5604C126.175 35.8812 122.927 39.1012 118.414 39.1012C113.955 39.1012 110.708 35.8812 110.708 31.5604C110.708 27.1845 113.955 23.937 118.414 23.937ZM118.414 35.5784C120.836 35.5784 122.459 33.8171 122.459 31.5603C122.459 29.2485 120.836 27.4596 118.414 27.4596C116.047 27.4596 114.423 29.2485 114.423 31.5603C114.423 33.8171 116.047 35.5784 118.414 35.5784Z" fill="#C2D1D9"/>
<path fill-rule="evenodd" clip-rule="evenodd" d="M130.11 28.7808C130.11 27.9277 129.917 27.3222 129.119 27.3222C128.541 27.3222 127.881 27.5974 127.661 27.735L127.496 24.7077C127.688 24.515 129.119 24.0747 130.633 24.0747C132.284 24.0747 133.358 24.7352 133.77 26.2489C134.458 24.9003 135.504 24.0747 137.376 24.0747C138.724 24.0747 139.77 24.5701 139.963 24.9003L139.412 28.368C139.192 28.0653 138.091 27.6249 136.77 27.6249C134.926 27.6249 134.211 29.2211 133.963 30.9V38.716H130.11V28.7808" fill="#C2D1D9"/>
<path fill-rule="evenodd" clip-rule="evenodd" d="M154.824 37.1472C153.338 38.3581 151.219 39.1012 148.769 39.1012C143.348 39.1012 140.926 35.7986 140.926 31.5604C140.926 27.267 143.898 23.937 148.522 23.937C152.898 23.937 154.962 26.6066 154.962 29.9366C154.962 30.8173 154.824 32.1933 154.659 32.7438H144.889C145.247 34.7529 146.54 35.8812 148.879 35.8812C150.696 35.8812 152.375 35.1382 153.365 34.3951L154.824 37.1472ZM151.274 29.2761C151.274 28.1202 150.393 27.1295 148.439 27.1295C146.375 27.1295 145.274 28.3679 144.999 29.7715H151.246C151.274 29.6339 151.274 29.4138 151.274 29.2761Z" fill="#C2D1D9"/>
</svg>
