<svg width="19" height="18" viewBox="0 0 19 18" fill="none" xmlns="http://www.w3.org/2000/svg">
<path d="M18.2399 6.33929L12.5893 5.51807L10.0634 0.397129C9.99437 0.256921 9.88087 0.143419 9.74066 0.0744272C9.38902 -0.099164 8.96172 0.0454954 8.7859 0.397129L6.25993 5.51807L0.609315 6.33929C0.453528 6.36154 0.311094 6.43499 0.202043 6.54626C0.0702067 6.68177 -0.0024412 6.86407 6.26395e-05 7.05311C0.00256648 7.24215 0.0800172 7.42246 0.215396 7.55443L4.30369 11.5403L3.33781 17.1687C3.31516 17.2996 3.32965 17.4343 3.37963 17.5574C3.42962 17.6805 3.5131 17.7872 3.62061 17.8652C3.72812 17.9433 3.85535 17.9897 3.98789 17.9992C4.12042 18.0086 4.25296 17.9808 4.37046 17.9187L9.42463 15.2614L14.4788 17.9187C14.6168 17.9922 14.777 18.0166 14.9306 17.9899C15.3178 17.9232 15.5782 17.556 15.5115 17.1687L14.5456 11.5403L18.6339 7.55443C18.7451 7.44538 18.8186 7.30294 18.8408 7.14716C18.9009 6.75769 18.6294 6.39715 18.2399 6.33929Z" fill="#FECB1C"/>
</svg>
