<svg width="16" height="16" viewBox="0 0 16 16" fill="none" xmlns="http://www.w3.org/2000/svg">
<path d="M7.25245 2.9365C5.28395 4.1965 4.29995 5.715 4.29995 7.49C4.29995 8.0425 4.39645 8.3185 4.58845 8.3185L4.78645 8.265C4.94245 8.205 5.06795 8.175 5.16445 8.175C5.72795 8.175 6.19945 8.38 6.57695 8.79C6.95495 9.2 7.14395 9.705 7.14395 10.308C7.14395 10.8865 6.93895 11.378 6.53145 11.7815C6.12345 12.185 5.63145 12.3865 5.05545 12.3865C4.25145 12.3865 3.58795 12.0565 3.06545 11.395C2.54395 10.735 2.28345 9.905 2.28345 8.9065C2.28345 7.7765 2.50445 6.743 2.94845 5.805C3.39345 4.8675 4.07045 4.02 4.98245 3.2625C5.89445 2.5055 6.47645 2.1265 6.72845 2.1265C6.89645 2.1265 7.03445 2.2075 7.14245 2.3695C7.25045 2.531 7.30445 2.672 7.30445 2.792L7.25095 2.936L7.25245 2.9365ZM13.7324 2.9365C11.7639 4.1965 10.7804 5.7145 10.7804 7.4905C10.7804 8.043 10.8769 8.319 11.0689 8.319L11.2669 8.2655C11.4229 8.2055 11.5484 8.1755 11.6449 8.1755C12.1964 8.1755 12.6649 8.3805 13.0484 8.7905C13.4334 9.2005 13.6244 9.7055 13.6244 10.3085C13.6244 10.887 13.4194 11.3785 13.0119 11.782C12.6039 12.1855 12.1119 12.387 11.5359 12.387C10.7319 12.387 10.0684 12.057 9.54595 11.3955C9.02445 10.7355 8.76395 9.9055 8.76395 8.907C8.76395 7.765 8.98795 6.722 9.43895 5.779C9.88895 4.8355 10.5664 3.9905 11.4724 3.2455C12.3799 2.5 12.9584 2.127 13.2099 2.127C13.3784 2.127 13.5164 2.208 13.6249 2.37C13.7324 2.532 13.7864 2.673 13.7864 2.793L13.7324 2.9365Z" fill="black"/>
</svg>
