<svg width="15" height="14" viewBox="0 0 15 14" fill="none" xmlns="http://www.w3.org/2000/svg">
<path d="M14.0826 4.71921L9.9923 4.12476L8.16383 0.417866C8.11389 0.316374 8.03173 0.234213 7.93023 0.184272C7.6757 0.0586149 7.36639 0.163329 7.23912 0.417866L5.41064 4.12476L1.32034 4.71921C1.20757 4.73532 1.10446 4.78849 1.02553 4.86904C0.930093 4.96712 0.877505 5.09909 0.879318 5.23593C0.88113 5.37277 0.937194 5.50329 1.03519 5.59881L3.99458 8.4841L3.29541 12.5583C3.27902 12.6531 3.2895 12.7505 3.32569 12.8397C3.36187 12.9288 3.4223 13.006 3.50012 13.0625C3.57794 13.119 3.67004 13.1526 3.76598 13.1594C3.86192 13.1663 3.95786 13.1461 4.04291 13.1012L7.70147 11.1777L11.36 13.1012C11.4599 13.1544 11.5759 13.1721 11.6871 13.1528C11.9674 13.1044 12.1559 12.8386 12.1075 12.5583L11.4084 8.4841L14.3678 5.59881C14.4483 5.51988 14.5015 5.41677 14.5176 5.304C14.5611 5.02208 14.3645 4.7611 14.0826 4.71921Z" fill="#FECB1C"/>
</svg>
